<svg xmlns="http://www.w3.org/2000/svg" viewBox="0 0 160 160" role="img" aria-labelledby="title description">
  <title id="title">Gerenciador Financeiro</title>
  <desc id="description">Logo de uma carteira com gráfico de crescimento</desc>
  <defs>
    <linearGradient id="background" x1="20" y1="12" x2="140" y2="148" gradientUnits="userSpaceOnUse">
      <stop stop-color="#1C8A72" />
      <stop offset="1" stop-color="#0B4F6C" />
    </linearGradient>
    <linearGradient id="wallet" x1="38" y1="48" x2="125" y2="120" gradientUnits="userSpaceOnUse">
      <stop stop-color="#F8D77D" />
      <stop offset="1" stop-color="#E6A73C" />
    </linearGradient>
    <filter id="shadow" x="20" y="31" width="125" height="112" filterUnits="userSpaceOnUse" color-interpolation-filters="sRGB">
      <feDropShadow dx="0" dy="7" stdDeviation="5" flood-color="#063A4E" flood-opacity=".3" />
    </filter>
  </defs>
  <rect width="160" height="160" rx="38" fill="url(#background)" />
  <circle cx="125" cy="35" r="25" fill="#75D7C3" opacity=".18" />
  <circle cx="28" cy="133" r="30" fill="#75D7C3" opacity=".12" />
  <g filter="url(#shadow)">
    <path d="M36 61c0-7.18 5.82-13 13-13h58c7.18 0 13 5.82 13 13v13H36V61Z" fill="#FFE3A0" />
    <path d="M31 75h94c5.52 0 10 4.48 10 10v28c0 7.18-5.82 13-13 13H39c-7.18 0-13-5.82-13-13V80c0-2.76 2.24-5 5-5Z" fill="url(#wallet)" />
    <path d="M87 88h47v25H87c-6.9 0-12.5-5.6-12.5-12.5S80.1 88 87 88Z" fill="#F9C557" />
    <circle cx="111" cy="100.5" r="6.5" fill="#0D6571" />
    <circle cx="111" cy="100.5" r="2.5" fill="#FDF5D9" />
  </g>
  <path d="M48 66 67 47l14 13 29-29" fill="none" stroke="#E7FFF8" stroke-linecap="round" stroke-linejoin="round" stroke-width="8" />
  <path d="M94 31h16v16" fill="none" stroke="#E7FFF8" stroke-linecap="round" stroke-linejoin="round" stroke-width="8" />
</svg>
